<svg xmlns="http://www.w3.org/2000/svg" x="0px" y="0px"
width="64" height="64"
viewBox="0 0 172 172"
style=" fill:#000000;"><g fill="none" fill-rule="none" stroke="none" stroke-width="1" stroke-linecap="butt" stroke-linejoin="miter" stroke-miterlimit="10" stroke-dasharray="" stroke-dashoffset="0" font-family="none" font-weight="none" font-size="none" text-anchor="none" style="mix-blend-mode: normal"><path d="M0,172v-172h172v172z" fill="none" fill-rule="nonzero"></path><path d="M86,97.18c-6.17454,0 -11.18,-5.00546 -11.18,-11.18v0c0,-6.17454 5.00546,-11.18 11.18,-11.18v0c6.17454,0 11.18,5.00546 11.18,11.18v0c0,6.17454 -5.00546,11.18 -11.18,11.18z" fill="#cccccc" fill-rule="nonzero"></path><g><path d="M202.68453,86c0,64.43281 -52.25172,116.68453 -116.68453,116.68453c-64.43281,0 -116.68453,-52.25172 -116.68453,-116.68453c0,-64.43281 52.25172,-116.68453 116.68453,-116.68453c64.43281,0 116.68453,52.25172 116.68453,116.68453" fill="#49a0ae" fill-rule="nonzero"></path><path d="M162.28469,100.57969c-2.30453,-2.63375 -5.22047,-3.33922 -8.55969,-2.35156c-1.45797,0.47031 -2.86891,1.17578 -4.32687,1.69313c-1.64609,0.61141 -3.33922,1.03469 -5.07938,0.61141c-1.17578,-0.28219 -1.17578,-0.32922 -1.36391,-1.55203c-0.47031,-3.57437 -1.08172,-7.14875 -2.58672,-10.44094c-2.06938,-4.46797 -5.50266,-7.10172 -10.44094,-7.57203c-0.09406,0 -0.14109,-0.04703 -0.23516,0c-0.37625,0 -0.84656,-0.37625 -1.12875,0.04703c-0.23516,0.42328 0.09406,0.89359 0.37625,1.26984c0.42328,0.51734 0.89359,1.03469 1.36391,1.505c2.63375,2.49266 3.38625,5.54969 2.58672,8.98297c-0.65844,2.96297 -1.69312,5.83188 -3.80953,8.13641c-2.96297,3.19812 -6.72547,4.13875 -10.91125,3.7625c-3.85656,-0.32922 -7.19578,-2.02234 -9.92359,-4.70312c-2.06938,-2.02234 -3.57437,-4.37391 -5.03234,-6.86656c-2.72781,-4.75016 -4.42094,-9.92359 -5.97297,-15.14406c-1.45797,-5.03234 -2.91594,-10.11172 -5.50266,-14.72078c-3.62141,-6.53734 -8.04234,-12.36922 -14.34453,-16.50797c-5.64375,-3.7625 -11.94594,-5.97297 -18.67141,-6.86656c-0.65844,-0.09406 -1.36391,0 -1.97531,-0.28219h-5.69078c-1.41094,0.28219 -2.86891,0.32922 -4.32688,0.61141c-5.73781,1.03469 -11.00531,3.19813 -15.89656,6.34922c-10.62906,6.86656 -17.91891,16.41391 -22.19875,28.31281c-0.28219,0.79953 -0.51734,1.64609 -0.7525,2.49266c0.56438,1.22281 1.55203,2.16344 2.35156,3.19812c2.86891,3.71547 5.73781,7.47797 9.17109,10.72313c5.40859,5.12641 11.61672,8.98297 18.95359,10.72313c2.86891,0.65844 5.73781,1.03469 8.70078,0.61141c1.59906,-0.23516 8.51266,-2.06937 8.74781,-1.505c0.65844,1.55203 0.32922,3.05703 -0.09406,4.60906c-0.18813,0.65844 -0.47031,1.31687 -0.56437,2.02234c-0.14109,1.59906 0.56437,2.86891 1.59906,3.95062c4.56203,5.03234 9.31219,9.82953 15.14406,13.45094c2.96297,1.83422 6.11406,3.38625 9.54734,4.23281c0.18813,0.04703 0.37625,0.14109 0.61141,0.04703c0.04703,-0.28219 -0.14109,-0.51734 -0.28219,-0.7525c-0.70547,-1.505 -1.55203,-2.91594 -2.44562,-4.32688c-0.37625,-0.56437 -0.56437,-1.17578 -0.61141,-1.83422c-0.04703,-0.47031 0.18813,-0.70547 0.65844,-0.65844c1.69312,0.09406 3.33922,0.42328 4.98531,0.79953c3.05703,0.70547 6.06703,1.59906 9.17109,2.06938c2.39859,0.37625 4.75016,0.56437 7.19578,0.7525c1.78719,0.14109 3.62141,0.18813 5.45562,0.14109c6.81953,-0.09406 13.35688,-1.505 19.75313,-3.85656c7.94828,-2.96297 15.47328,-6.72547 22.81016,-10.95828c0.09406,-0.04703 0.18813,-0.04703 0.28219,-0.09406c1.17578,-0.94063 2.39859,-1.88125 3.57437,-2.77484c0.47031,-0.37625 0.98766,-0.61141 1.55203,-0.89359c1.505,-0.65844 2.91594,-0.56437 4.23281,0.42328c1.45797,1.08172 2.86891,2.21047 4.32688,3.33922c0.56438,0.42328 1.17578,0.79953 1.78719,1.12875c0.42328,0.28219 0.7525,0.14109 0.7525,-0.37625c0.23516,-4.13875 -0.23516,-7.90125 -2.96297,-10.95828" fill="#231f20" fill-rule="nonzero"></path><path d="M149.02188,110.45625c-16.555,21.77547 -107.56047,37.53094 -132.39297,-3.62141c-2.58672,-3.38625 -4.84422,-7.05469 -6.49031,-11.05234c-1.26984,-3.05703 -2.49266,-6.11406 -2.96297,-9.40625c-0.14109,-0.98766 -0.32922,-1.97531 -0.47031,-2.96297v-3.52734c0.18812,-0.23516 0.23516,-0.51734 0.32922,-0.79953c0.18812,-0.65844 0.37625,-1.31688 0.84656,-1.78719c0.56437,1.22281 1.55203,2.16344 2.35156,3.19812c2.86891,3.71547 5.73781,7.47797 9.17109,10.72313c5.40859,5.12641 11.61672,8.98297 18.95359,10.72313c2.86891,0.65844 5.73781,1.03469 8.70078,0.61141c1.59906,-0.23516 2.96297,-1.08172 4.42094,-1.64609c1.03469,-0.37625 2.02234,-0.65844 3.15109,-0.65844c0.61141,0 0.94063,0.23516 1.17578,0.79953c0.65844,1.55203 0.32922,3.05703 -0.09406,4.60906c-0.18812,0.65844 -0.47031,1.31688 -0.56437,2.02234c-0.14109,1.59906 0.56437,2.86891 1.55203,3.95063c4.56203,5.03234 9.31219,9.82953 15.14406,13.45094c2.96297,1.83422 6.11406,3.38625 9.54734,4.23281c0.18813,0.04703 0.32922,0.14109 0.61141,0.04703c0.04703,-0.28219 -0.14109,-0.51734 -0.28219,-0.7525c-0.70547,-1.505 -1.55203,-2.91594 -2.44562,-4.32688c-0.37625,-0.56437 -0.56438,-1.17578 -0.61141,-1.83422c-0.04703,-0.47031 0.18812,-0.70547 0.65844,-0.65844c1.69312,0.09406 3.33922,0.42328 4.98531,0.79953c3.05703,0.70547 6.06703,1.59906 9.17109,2.06938c2.39859,0.37625 4.75016,0.61141 7.19578,0.7525c1.78719,0.14109 3.62141,0.18813 5.45562,0.14109c6.81953,-0.09406 13.35688,-1.505 19.75313,-3.85656c7.99531,-3.10406 23.04531,-11.19344 23.13938,-11.24047" fill="#e3eae3" fill-rule="evenodd"></path><path d="M38.92172,84.77719c0,2.35156 -1.88125,4.23281 -4.23281,4.23281c-2.35156,0 -4.23281,-1.88125 -4.23281,-4.23281c0,-2.35156 1.88125,-4.23281 4.23281,-4.23281c2.30453,0 4.23281,1.88125 4.23281,4.23281" fill="#e3eae3" fill-rule="nonzero"></path><path d="M38.92172,82.84891c0,1.26984 -1.03469,2.30453 -2.30453,2.30453c-1.26984,0 -2.30453,-1.03469 -2.30453,-2.30453c0,-1.26984 1.03469,-2.30453 2.30453,-2.30453c1.26984,0 2.30453,1.03469 2.30453,2.30453" fill="#231f20" fill-rule="nonzero"></path></g><path d="" fill="none" fill-rule="nonzero"></path></g></svg>